<?xml version="1.0" encoding="UTF-8"?>
<svg xmlns="http://www.w3.org/2000/svg" xmlns:xlink="http://www.w3.org/1999/xlink" width="375pt" height="374.999991pt" viewBox="0 0 375 374.999991" version="1.2">
<g id="surface1">
<path style=" stroke:none;fill-rule:nonzero;fill:rgb(51.759338%,72.549438%,83.139038%);fill-opacity:1;" d="M 187.765625 7.933594 C 184.847656 7.933594 181.929688 8.003906 179.011719 8.144531 C 176.101562 8.292969 173.1875 8.503906 170.28125 8.792969 C 167.375 9.078125 164.476562 9.433594 161.589844 9.859375 C 158.703125 10.289062 155.828125 10.789062 152.964844 11.355469 C 150.101562 11.929688 147.257812 12.566406 144.425781 13.28125 C 141.59375 13.988281 138.777344 14.761719 135.980469 15.609375 C 133.191406 16.460938 130.421875 17.375 127.675781 18.359375 C 124.921875 19.339844 122.199219 20.390625 119.5 21.507812 C 116.808594 22.625 114.140625 23.808594 111.496094 25.054688 C 108.859375 26.304688 106.253906 27.617188 103.675781 28.992188 C 101.101562 30.371094 98.5625 31.804688 96.058594 33.308594 C 93.554688 34.808594 91.089844 36.371094 88.660156 37.996094 C 86.238281 39.613281 83.851562 41.296875 81.507812 43.03125 C 79.164062 44.773438 76.859375 46.566406 74.601562 48.421875 C 72.34375 50.273438 70.132812 52.183594 67.972656 54.140625 C 65.8125 56.101562 63.699219 58.117188 61.628906 60.179688 C 59.566406 62.242188 57.558594 64.355469 55.59375 66.515625 C 53.632812 68.683594 51.730469 70.890625 49.878906 73.144531 C 48.023438 75.402344 46.230469 77.703125 44.488281 80.050781 C 42.75 82.394531 41.070312 84.78125 39.449219 87.210938 C 37.828125 89.632812 36.265625 92.097656 34.765625 94.609375 C 33.265625 97.109375 31.824219 99.648438 30.449219 102.21875 C 29.074219 104.796875 27.765625 107.402344 26.511719 110.046875 C 25.265625 112.683594 24.082031 115.351562 22.964844 118.046875 C 21.847656 120.746094 20.796875 123.46875 19.816406 126.214844 C 18.832031 128.964844 17.917969 131.734375 17.070312 134.53125 C 16.21875 137.320312 15.445312 140.132812 14.730469 142.964844 C 14.023438 145.800781 13.382812 148.644531 12.8125 151.507812 C 12.246094 154.375 11.746094 157.25 11.320312 160.136719 C 10.890625 163.027344 10.53125 165.917969 10.246094 168.824219 C 9.957031 171.730469 9.742188 174.640625 9.601562 177.554688 C 9.457031 180.472656 9.390625 183.390625 9.390625 186.308594 C 9.390625 189.230469 9.457031 192.144531 9.601562 195.0625 C 9.742188 197.980469 9.957031 200.890625 10.246094 203.789062 C 10.53125 206.695312 10.890625 209.597656 11.320312 212.484375 C 11.746094 215.371094 12.246094 218.246094 12.8125 221.109375 C 13.382812 223.972656 14.023438 226.824219 14.730469 229.65625 C 15.445312 232.480469 16.21875 235.296875 17.070312 238.089844 C 17.917969 240.882812 18.832031 243.652344 19.816406 246.40625 C 20.796875 249.152344 21.847656 251.875 22.964844 254.574219 C 24.082031 257.269531 25.265625 259.9375 26.511719 262.574219 C 27.765625 265.214844 29.074219 267.820312 30.449219 270.394531 C 31.824219 272.972656 33.265625 275.511719 34.765625 278.015625 C 36.265625 280.515625 37.828125 282.984375 39.449219 285.414062 C 41.070312 287.835938 42.75 290.222656 44.488281 292.566406 C 46.230469 294.917969 48.023438 297.210938 49.878906 299.46875 C 51.730469 301.730469 53.632812 303.9375 55.59375 306.101562 C 57.558594 308.265625 59.566406 310.378906 61.628906 312.441406 C 63.699219 314.503906 65.8125 316.519531 67.972656 318.480469 C 70.132812 320.4375 72.34375 322.34375 74.601562 324.199219 C 76.859375 326.050781 79.164062 327.84375 81.507812 329.582031 C 83.851562 331.324219 86.238281 333 88.660156 334.625 C 91.089844 336.25 93.554688 337.804688 96.058594 339.308594 C 98.5625 340.808594 101.101562 342.25 103.675781 343.625 C 106.253906 345.003906 108.859375 346.316406 111.496094 347.5625 C 114.140625 348.8125 116.808594 349.992188 119.5 351.109375 C 122.199219 352.222656 124.921875 353.273438 127.675781 354.261719 C 130.421875 355.246094 133.191406 356.160156 135.980469 357.003906 C 138.777344 357.851562 141.59375 358.632812 144.425781 359.34375 C 147.257812 360.050781 150.101562 360.691406 152.964844 361.257812 C 155.828125 361.828125 158.703125 362.328125 161.589844 362.753906 C 164.476562 363.1875 167.375 363.542969 170.28125 363.828125 C 173.1875 364.117188 176.101562 364.328125 179.011719 364.46875 C 181.929688 364.617188 184.847656 364.691406 187.765625 364.691406 C 190.683594 364.691406 193.601562 364.617188 196.519531 364.46875 C 199.429688 364.328125 202.34375 364.117188 205.25 363.828125 C 208.152344 363.542969 211.054688 363.1875 213.941406 362.753906 C 216.828125 362.328125 219.703125 361.828125 222.566406 361.257812 C 225.429688 360.691406 228.273438 360.050781 231.105469 359.34375 C 233.9375 358.632812 236.753906 357.851562 239.546875 357.003906 C 242.339844 356.160156 245.109375 355.246094 247.855469 354.257812 C 250.609375 353.273438 253.332031 352.222656 256.03125 351.109375 C 258.722656 349.992188 261.390625 348.8125 264.035156 347.5625 C 266.671875 346.316406 269.277344 345.003906 271.851562 343.625 C 274.429688 342.25 276.96875 340.808594 279.472656 339.308594 C 281.972656 337.804688 284.441406 336.25 286.871094 334.625 C 289.292969 333 291.679688 331.324219 294.023438 329.582031 C 296.367188 327.84375 298.667969 326.050781 300.929688 324.199219 C 303.1875 322.34375 305.398438 320.4375 307.558594 318.480469 C 309.71875 316.519531 311.832031 314.503906 313.898438 312.441406 C 315.964844 310.378906 317.972656 308.265625 319.9375 306.101562 C 321.898438 303.9375 323.800781 301.730469 325.652344 299.46875 C 327.507812 297.210938 329.300781 294.917969 331.042969 292.566406 C 332.78125 290.222656 334.460938 287.835938 336.082031 285.414062 C 337.699219 282.984375 339.261719 280.515625 340.765625 278.015625 C 342.265625 275.511719 343.707031 272.972656 345.082031 270.394531 C 346.453125 267.820312 347.765625 265.214844 349.019531 262.574219 C 350.265625 259.9375 351.449219 257.269531 352.566406 254.574219 C 353.683594 251.875 354.730469 249.152344 355.714844 246.40625 C 356.699219 243.652344 357.613281 240.882812 358.460938 238.089844 C 359.308594 235.296875 360.085938 232.480469 360.800781 229.65625 C 361.507812 226.824219 362.148438 223.972656 362.714844 221.109375 C 363.285156 218.246094 363.785156 215.371094 364.210938 212.484375 C 364.640625 209.597656 365 206.695312 365.285156 203.789062 C 365.574219 200.890625 365.789062 197.980469 365.925781 195.0625 C 366.074219 192.144531 366.140625 189.230469 366.140625 186.308594 C 366.140625 183.390625 366.074219 180.472656 365.925781 177.554688 C 365.789062 174.640625 365.574219 171.730469 365.285156 168.824219 C 365 165.917969 364.640625 163.027344 364.210938 160.136719 C 363.785156 157.25 363.285156 154.375 362.714844 151.507812 C 362.148438 148.644531 361.507812 145.800781 360.800781 142.964844 C 360.085938 140.132812 359.308594 137.320312 358.460938 134.53125 C 357.613281 131.734375 356.699219 128.964844 355.714844 126.214844 C 354.730469 123.46875 353.683594 120.746094 352.566406 118.046875 C 351.449219 115.351562 350.265625 112.683594 349.019531 110.046875 C 347.765625 107.402344 346.453125 104.796875 345.082031 102.21875 C 343.707031 99.648438 342.265625 97.109375 340.765625 94.609375 C 339.261719 92.097656 337.699219 89.632812 336.082031 87.210938 C 334.460938 84.78125 332.78125 82.394531 331.042969 80.050781 C 329.300781 77.703125 327.507812 75.402344 325.652344 73.144531 C 323.800781 70.890625 321.898438 68.683594 319.9375 66.515625 C 317.972656 64.355469 315.964844 62.242188 313.898438 60.179688 C 311.832031 58.117188 309.71875 56.101562 307.558594 54.140625 C 305.398438 52.183594 303.1875 50.273438 300.929688 48.421875 C 298.667969 46.566406 296.367188 44.773438 294.023438 43.03125 C 291.679688 41.296875 289.292969 39.613281 286.871094 37.996094 C 284.441406 36.371094 281.972656 34.808594 279.472656 33.308594 C 276.96875 31.804688 274.429688 30.371094 271.851562 28.992188 C 269.277344 27.617188 266.671875 26.304688 264.035156 25.054688 C 261.390625 23.808594 258.722656 22.625 256.03125 21.507812 C 253.332031 20.390625 250.609375 19.339844 247.855469 18.359375 C 245.109375 17.375 242.339844 16.460938 239.546875 15.609375 C 236.753906 14.761719 233.9375 13.988281 231.105469 13.28125 C 228.273438 12.566406 225.429688 11.929688 222.566406 11.355469 C 219.703125 10.789062 216.828125 10.289062 213.941406 9.859375 C 211.054688 9.433594 208.152344 9.078125 205.25 8.792969 C 202.34375 8.503906 199.429688 8.292969 196.519531 8.144531 C 193.601562 8.003906 190.683594 7.933594 187.765625 7.933594 Z M 187.765625 7.933594 "/>
<path style=" stroke:none;fill-rule:nonzero;fill:rgb(7.839966%,7.839966%,8.239746%);fill-opacity:1;" d="M 187.765625 18.890625 C 185.023438 18.890625 182.289062 18.957031 179.550781 19.089844 C 176.8125 19.226562 174.078125 19.425781 171.355469 19.695312 C 168.628906 19.964844 165.910156 20.300781 163.203125 20.703125 C 160.492188 21.105469 157.792969 21.574219 155.101562 22.105469 C 152.414062 22.644531 149.742188 23.242188 147.085938 23.90625 C 144.429688 24.574219 141.789062 25.304688 139.167969 26.097656 C 136.542969 26.898438 133.941406 27.753906 131.359375 28.679688 C 128.785156 29.601562 126.226562 30.585938 123.699219 31.636719 C 121.167969 32.683594 118.664062 33.796875 116.183594 34.96875 C 113.707031 36.132812 111.257812 37.367188 108.84375 38.660156 C 106.429688 39.949219 104.042969 41.304688 101.695312 42.707031 C 99.34375 44.117188 97.03125 45.582031 94.753906 47.105469 C 92.476562 48.628906 90.234375 50.203125 88.03125 51.839844 C 85.835938 53.46875 83.671875 55.15625 81.554688 56.894531 C 79.4375 58.628906 77.363281 60.421875 75.335938 62.261719 C 73.300781 64.097656 71.320312 65.992188 69.382812 67.925781 C 67.449219 69.867188 65.554688 71.851562 63.71875 73.878906 C 61.875 75.910156 60.085938 77.980469 58.347656 80.097656 C 56.613281 82.214844 54.929688 84.378906 53.292969 86.582031 C 51.664062 88.777344 50.085938 91.019531 48.5625 93.296875 C 47.042969 95.574219 45.578125 97.890625 44.167969 100.242188 C 42.757812 102.59375 41.40625 104.972656 40.113281 107.390625 C 38.824219 109.808594 37.589844 112.25 36.417969 114.726562 C 35.246094 117.207031 34.136719 119.710938 33.09375 122.242188 C 32.042969 124.777344 31.054688 127.328125 30.132812 129.910156 C 29.210938 132.484375 28.351562 135.085938 27.554688 137.710938 C 26.761719 140.328125 26.03125 142.972656 25.363281 145.628906 C 24.699219 148.289062 24.101562 150.964844 23.5625 153.648438 C 23.027344 156.335938 22.5625 159.035156 22.160156 161.742188 C 21.757812 164.453125 21.421875 167.171875 21.152344 169.898438 C 20.882812 172.628906 20.683594 175.355469 20.546875 178.097656 C 20.414062 180.832031 20.347656 183.566406 20.347656 186.308594 C 20.347656 189.046875 20.414062 191.789062 20.546875 194.523438 C 20.683594 197.257812 20.882812 199.992188 21.152344 202.722656 C 21.421875 205.445312 21.757812 208.167969 22.160156 210.878906 C 22.5625 213.589844 23.027344 216.285156 23.5625 218.972656 C 24.101562 221.660156 24.699219 224.332031 25.363281 226.988281 C 26.03125 229.648438 26.761719 232.285156 27.554688 234.910156 C 28.351562 237.53125 29.210938 240.128906 30.132812 242.710938 C 31.054688 245.289062 32.042969 247.847656 33.09375 250.378906 C 34.136719 252.90625 35.246094 255.414062 36.417969 257.886719 C 37.589844 260.367188 38.824219 262.8125 40.113281 265.230469 C 41.40625 267.648438 42.757812 270.027344 44.167969 272.378906 C 45.578125 274.730469 47.042969 277.042969 48.5625 279.320312 C 50.085938 281.601562 51.664062 283.835938 53.292969 286.039062 C 54.929688 288.238281 56.613281 290.398438 58.347656 292.519531 C 60.085938 294.636719 61.875 296.710938 63.71875 298.738281 C 65.554688 300.769531 67.449219 302.753906 69.382812 304.691406 C 71.320312 306.632812 73.300781 308.515625 75.335938 310.359375 C 77.363281 312.199219 79.4375 313.988281 81.554688 315.726562 C 83.671875 317.464844 85.835938 319.152344 88.03125 320.78125 C 90.234375 322.410156 92.476562 323.992188 94.753906 325.511719 C 97.03125 327.03125 99.34375 328.503906 101.695312 329.90625 C 104.042969 331.316406 106.429688 332.667969 108.84375 333.960938 C 111.257812 335.25 113.707031 336.480469 116.183594 337.652344 C 118.664062 338.824219 121.167969 339.9375 123.699219 340.988281 C 126.226562 342.03125 128.785156 343.019531 131.359375 343.941406 C 133.941406 344.863281 136.542969 345.722656 139.167969 346.515625 C 141.789062 347.316406 144.429688 348.042969 147.085938 348.707031 C 149.742188 349.375 152.414062 349.976562 155.101562 350.507812 C 157.792969 351.046875 160.492188 351.515625 163.203125 351.914062 C 165.910156 352.316406 168.628906 352.652344 171.355469 352.921875 C 174.078125 353.1875 176.8125 353.390625 179.550781 353.523438 C 182.289062 353.660156 185.023438 353.726562 187.765625 353.726562 C 190.507812 353.726562 193.242188 353.660156 195.980469 353.523438 C 198.714844 353.390625 201.453125 353.1875 204.175781 352.921875 C 206.902344 352.652344 209.617188 352.316406 212.328125 351.914062 C 215.039062 351.515625 217.738281 351.046875 220.429688 350.507812 C 223.117188 349.976562 225.789062 349.375 228.445312 348.707031 C 231.101562 348.042969 233.742188 347.316406 236.363281 346.515625 C 238.988281 345.722656 241.585938 344.863281 244.167969 343.941406 C 246.746094 343.019531 249.304688 342.03125 251.832031 340.988281 C 254.363281 339.9375 256.867188 338.824219 259.34375 337.652344 C 261.824219 336.480469 264.269531 335.25 266.6875 333.960938 C 269.101562 332.667969 271.488281 331.316406 273.835938 329.90625 C 276.1875 328.503906 278.5 327.03125 280.777344 325.511719 C 283.054688 323.992188 285.292969 322.410156 287.5 320.78125 C 289.695312 319.152344 291.855469 317.464844 293.976562 315.726562 C 296.09375 313.988281 298.167969 312.199219 300.195312 310.359375 C 302.226562 308.515625 304.210938 306.632812 306.148438 304.691406 C 308.082031 302.753906 309.976562 300.769531 311.8125 298.738281 C 313.65625 296.710938 315.445312 294.636719 317.183594 292.519531 C 318.917969 290.398438 320.601562 288.238281 322.238281 286.039062 C 323.867188 283.835938 325.441406 281.601562 326.96875 279.320312 C 328.488281 277.042969 329.953125 274.730469 331.363281 272.378906 C 332.773438 270.027344 334.125 267.648438 335.417969 265.230469 C 336.707031 262.8125 337.9375 260.367188 339.109375 257.886719 C 340.28125 255.414062 341.386719 252.90625 342.4375 250.378906 C 343.488281 247.847656 344.476562 245.289062 345.398438 242.710938 C 346.320312 240.128906 347.179688 237.53125 347.972656 234.910156 C 348.769531 232.285156 349.5 229.648438 350.167969 226.988281 C 350.832031 224.332031 351.429688 221.660156 351.96875 218.972656 C 352.503906 216.285156 352.96875 213.589844 353.371094 210.878906 C 353.773438 208.167969 354.109375 205.445312 354.378906 202.722656 C 354.648438 199.992188 354.847656 197.257812 354.980469 194.523438 C 355.117188 191.789062 355.183594 189.046875 355.183594 186.308594 C 355.183594 183.566406 355.117188 180.832031 354.980469 178.097656 C 354.847656 175.355469 354.648438 172.628906 354.378906 169.898438 C 354.109375 167.171875 353.773438 164.453125 353.371094 161.742188 C 352.96875 159.035156 352.503906 156.335938 351.96875 153.648438 C 351.429688 150.964844 350.832031 148.289062 350.167969 145.628906 C 349.5 142.972656 348.769531 140.328125 347.972656 137.710938 C 347.179688 135.085938 346.320312 132.484375 345.398438 129.910156 C 344.476562 127.328125 343.488281 124.777344 342.4375 122.242188 C 341.386719 119.710938 340.28125 117.207031 339.109375 114.726562 C 337.9375 112.25 336.707031 109.808594 335.417969 107.390625 C 334.125 104.972656 332.773438 102.59375 331.363281 100.242188 C 329.953125 97.890625 328.488281 95.574219 326.96875 93.296875 C 325.441406 91.019531 323.867188 88.777344 322.238281 86.582031 C 320.601562 84.378906 318.917969 82.214844 317.183594 80.097656 C 315.445312 77.980469 313.65625 75.910156 311.8125 73.878906 C 309.976562 71.851562 308.082031 69.867188 306.148438 67.925781 C 304.210938 65.992188 302.226562 64.097656 300.195312 62.261719 C 298.167969 60.421875 296.09375 58.628906 293.976562 56.894531 C 291.855469 55.15625 289.695312 53.46875 287.5 51.839844 C 285.292969 50.203125 283.054688 48.628906 280.777344 47.105469 C 278.5 45.582031 276.1875 44.117188 273.835938 42.707031 C 271.488281 41.304688 269.101562 39.949219 266.683594 38.660156 C 264.269531 37.367188 261.824219 36.132812 259.34375 34.96875 C 256.867188 33.796875 254.363281 32.683594 251.832031 31.636719 C 249.304688 30.585938 246.746094 29.601562 244.167969 28.679688 C 241.585938 27.753906 238.988281 26.898438 236.363281 26.097656 C 233.742188 25.304688 231.101562 24.574219 228.445312 23.90625 C 225.789062 23.242188 223.117188 22.644531 220.429688 22.105469 C 217.738281 21.574219 215.039062 21.105469 212.328125 20.703125 C 209.617188 20.300781 206.902344 19.964844 204.175781 19.695312 C 201.453125 19.425781 198.714844 19.226562 195.980469 19.089844 C 193.242188 18.957031 190.507812 18.890625 187.765625 18.890625 Z M 187.765625 18.890625 "/>
<path style=" stroke:none;fill-rule:nonzero;fill:rgb(51.759338%,72.549438%,83.139038%);fill-opacity:1;" d="M 206.367188 212.9375 C 206.445312 212.984375 206.523438 213.058594 206.609375 213.15625 C 206.707031 213.265625 206.757812 213.390625 206.757812 213.523438 C 206.757812 213.75 206.6875 213.921875 206.5625 214.035156 C 206.425781 214.164062 206.273438 214.230469 206.097656 214.230469 L 205.511719 214.183594 C 205.425781 214.214844 205.371094 214.230469 205.339844 214.230469 C 194.382812 213.628906 183.585938 213.261719 172.9375 213.132812 C 162.292969 213 151.5625 212.960938 140.753906 213.011719 C 138.960938 213.011719 137.203125 213.011719 135.480469 213.011719 C 134.390625 213.011719 133.511719 213.210938 132.84375 213.621094 C 132.171875 214.023438 131.597656 214.757812 131.109375 215.820312 C 128.328125 222.148438 125.484375 228.46875 122.589844 234.765625 C 121.007812 238.195312 119.4375 241.632812 117.875 245.070312 C 116.753906 247.574219 115.640625 250.113281 114.554688 252.6875 C 113.980469 253.941406 113.445312 255.203125 112.945312 256.472656 C 112.894531 256.582031 112.820312 256.71875 112.722656 256.863281 C 112.640625 257.21875 112.492188 257.546875 112.285156 257.839844 C 111.925781 258.132812 111.460938 258.304688 110.894531 258.355469 C 110.335938 258.402344 109.847656 258.285156 109.429688 258.011719 C 109.019531 257.75 108.902344 257.292969 109.085938 256.644531 C 109.476562 255.570312 109.90625 254.519531 110.378906 253.496094 C 114.542969 243.972656 118.742188 234.449219 122.980469 224.925781 C 123.957031 222.710938 124.945312 220.46875 125.957031 218.210938 C 126.105469 217.871094 126.257812 217.503906 126.421875 217.113281 C 126.765625 216.332031 127.113281 215.550781 127.472656 214.769531 C 127.816406 213.902344 127.601562 213.425781 126.835938 213.328125 C 121.300781 213.457031 115.800781 213.699219 110.332031 214.0625 C 107.460938 214.21875 104.574219 214.367188 101.664062 214.5 C 100.015625 214.550781 98.867188 215.332031 98.21875 216.84375 C 95.351562 223.027344 92.371094 229.15625 89.285156 235.230469 C 87.457031 238.824219 85.609375 242.433594 83.742188 246.046875 C 83.039062 247.347656 82.347656 248.648438 81.664062 249.953125 C 81.273438 250.785156 80.839844 251.566406 80.371094 252.296875 C 79.882812 252.945312 79.230469 253.347656 78.417969 253.496094 C 77.617188 253.640625 76.917969 253.59375 76.316406 253.347656 C 75.714844 253.117188 75.425781 252.75 75.464844 252.25 C 75.6875 251.234375 76 250.277344 76.390625 249.367188 C 79.515625 241.371094 82.917969 233.507812 86.597656 225.78125 C 87.898438 223.046875 89.210938 220.300781 90.527344 217.550781 C 90.871094 216.683594 90.625 216.195312 89.796875 216.085938 C 88.964844 215.988281 87.75 216.027344 86.160156 216.210938 C 86.121094 216.210938 86.0625 216.210938 85.964844 216.210938 C 83.179688 216.453125 80.308594 216.832031 77.367188 217.355469 C 74.4375 217.894531 72.519531 218.285156 71.628906 218.527344 C 70.714844 218.753906 69.785156 218.871094 68.847656 218.871094 C 68.777344 218.917969 68.707031 218.945312 68.625 218.945312 C 68.542969 218.945312 68.457031 218.917969 68.359375 218.871094 L 67.871094 218.945312 C 67.6875 218.945312 67.507812 218.871094 67.332031 218.722656 C 67.148438 218.589844 67.0625 218.417969 67.0625 218.210938 C 67.09375 218.09375 67.167969 217.949219 67.285156 217.773438 C 67.394531 217.589844 67.515625 217.460938 67.648438 217.382812 C 71.128906 216.160156 74.683594 215.3125 78.296875 214.84375 C 82.410156 214.21875 86.535156 213.695312 90.675781 213.253906 C 92.042969 213.21875 93.019531 212.59375 93.605469 211.375 C 94.808594 208.902344 96.058594 206.4375 97.367188 203.976562 C 98.929688 201.046875 100.515625 198.132812 102.128906 195.234375 C 102.675781 194.148438 103.238281 193.054688 103.8125 191.960938 C 103.890625 191.863281 103.964844 191.761719 104.03125 191.644531 C 104.179688 191.292969 104.363281 190.960938 104.59375 190.667969 C 105.667969 189.398438 106.570312 188.027344 107.304688 186.542969 C 108.046875 185.066406 108.730469 183.550781 109.355469 182 C 109.648438 181.351562 109.929688 180.699219 110.210938 180.046875 C 115.464844 168.199219 120.648438 156.3125 125.761719 144.398438 C 128.109375 139.191406 129.914062 133.824219 131.183594 128.304688 C 131.683594 126.304688 131.820312 124.3125 131.574219 122.324219 C 131.3125 121.152344 130.550781 120.542969 129.28125 120.492188 C 128.023438 120.445312 126.496094 120.773438 124.6875 121.46875 C 122.894531 122.171875 121.03125 123.027344 119.097656 124.035156 C 117.15625 125.027344 115.410156 126.003906 113.847656 126.964844 C 112.285156 127.910156 111.125 128.617188 110.378906 129.085938 C 110.167969 129.222656 110.019531 129.308594 109.941406 129.355469 C 89.558594 142.042969 71.320312 157.265625 55.222656 175.042969 C 53.449219 176.996094 51.746094 179.015625 50.117188 181.097656 C 48.476562 183.183594 46.980469 185.371094 45.625 187.664062 C 44.601562 189.410156 43.78125 191.230469 43.160156 193.136719 C 42.414062 196.050781 42.621094 198.28125 43.792969 199.824219 C 44.964844 201.355469 46.738281 202.390625 49.09375 202.925781 C 51.4375 203.453125 53.988281 203.628906 56.734375 203.464844 C 59.480469 203.304688 62.082031 203.023438 64.523438 202.632812 C 66.964844 202.230469 68.851562 201.820312 70.1875 201.414062 C 71.800781 201.023438 73.414062 200.648438 75.023438 200.289062 C 76.402344 200.03125 76.789062 200.117188 76.171875 200.558594 C 75.566406 200.996094 74.25 201.601562 72.214844 202.363281 C 70.175781 203.117188 67.734375 203.855469 64.890625 204.585938 C 62.039062 205.308594 59.089844 205.820312 56.050781 206.125 C 53.011719 206.417969 50.15625 206.355469 47.480469 205.929688 C 44.8125 205.488281 42.640625 204.5 40.960938 202.949219 C 39.289062 201.40625 38.433594 199.109375 38.398438 196.066406 C 38.398438 195.984375 38.398438 195.90625 38.398438 195.820312 C 38.496094 193.902344 38.953125 192.078125 39.765625 190.351562 C 41.121094 187.214844 42.855469 184.296875 44.964844 181.609375 C 47.199219 178.714844 49.527344 175.910156 51.949219 173.1875 C 67.589844 156.03125 85.207031 141.222656 104.789062 128.769531 C 107.097656 127.292969 109.78125 125.667969 112.847656 123.910156 C 115.90625 122.152344 119.054688 120.683594 122.296875 119.492188 C 125.53125 118.289062 128.558594 117.75 131.378906 117.878906 C 134.503906 118.0625 136.214844 119.6875 136.507812 122.761719 C 136.652344 123.90625 136.640625 125.023438 136.484375 126.109375 C 136.335938 127.203125 136.121094 128.28125 135.847656 129.355469 C 135.8125 129.519531 135.78125 129.691406 135.75 129.867188 C 135.164062 132.476562 134.414062 135.015625 133.503906 137.488281 C 132.605469 139.964844 131.636719 142.417969 130.597656 144.863281 C 121.691406 166.023438 112.371094 186.980469 102.640625 207.738281 C 102.328125 208.339844 102.054688 208.96875 101.808594 209.617188 C 101.371094 210.628906 101.40625 211.324219 101.933594 211.714844 C 102.449219 212.089844 103.328125 212.277344 104.570312 212.277344 C 105.800781 212.277344 107.253906 212.21875 108.914062 212.105469 C 109.160156 212.105469 109.410156 212.070312 109.671875 212.007812 C 110.757812 211.972656 111.871094 211.917969 112.992188 211.839844 C 117.988281 211.449219 122.941406 211.179688 127.863281 211.03125 C 128.722656 211.03125 129.328125 210.679688 129.671875 209.957031 C 130.0625 209.164062 130.433594 208.359375 130.792969 207.542969 C 137.203125 193.429688 143.882812 179.449219 150.816406 165.59375 C 157.75 151.722656 164.78125 137.914062 171.914062 124.15625 C 171.972656 123.976562 172.058594 123.800781 172.15625 123.617188 C 172.414062 122.972656 172.804688 122.421875 173.328125 121.980469 C 173.71875 121.773438 174.171875 121.664062 174.695312 121.664062 C 175.214844 121.664062 175.65625 121.785156 176.015625 122.03125 C 176.386719 122.261719 176.464844 122.683594 176.257812 123.300781 C 176.210938 123.433594 176.148438 123.582031 176.089844 123.742188 C 175.5 125.222656 174.867188 126.683594 174.183594 128.109375 C 170.667969 135.191406 167.125 142.261719 163.5625 149.304688 C 162.304688 151.8125 161.046875 154.328125 159.777344 156.851562 C 151.488281 173.394531 143.367188 190.027344 135.410156 206.757812 C 135.273438 207.070312 135.128906 207.371094 134.96875 207.664062 C 134.785156 208.023438 134.632812 208.371094 134.503906 208.714844 C 134.027344 209.757812 134 210.433594 134.40625 210.738281 C 134.808594 211.050781 135.46875 211.148438 136.386719 211.03125 C 145.90625 210.53125 155.609375 210.421875 165.492188 210.714844 C 175.367188 210.996094 185.175781 211.394531 194.914062 211.910156 C 197.894531 212.039062 200.859375 212.1875 203.828125 212.351562 C 203.972656 212.351562 204.078125 212.351562 204.144531 212.351562 C 204.546875 212.351562 204.9375 212.382812 205.316406 212.449219 C 205.707031 212.511719 206.054688 212.675781 206.367188 212.9375 Z M 206.367188 212.9375 "/>
<path style=" stroke:none;fill-rule:nonzero;fill:rgb(51.759338%,72.549438%,83.139038%);fill-opacity:1;" d="M 269.929688 134.753906 C 271.847656 140.144531 271.433594 145.53125 268.6875 150.917969 C 268.421875 151.441406 268.105469 151.910156 267.734375 152.332031 C 267.375 152.742188 266.867188 153.011719 266.21875 153.140625 C 265.792969 153.222656 265.421875 153.125 265.097656 152.847656 C 264.765625 152.554688 264.644531 152.222656 264.730469 151.84375 C 264.972656 151.101562 265.226562 150.375 265.488281 149.671875 C 265.632812 149.328125 265.785156 148.988281 265.949219 148.644531 C 267.300781 144.921875 267.542969 141.222656 266.683594 137.5625 C 265.71875 133.398438 263.222656 130.664062 259.1875 129.355469 C 256.824219 128.660156 254.449219 128.277344 252.058594 128.207031 C 249.675781 128.148438 247.253906 128.332031 244.78125 128.769531 C 237.261719 130.15625 229.917969 132.347656 222.757812 135.339844 C 211.71875 139.832031 201.203125 145.417969 191.210938 152.089844 C 182.625 157.839844 174.898438 164.589844 168.011719 172.355469 C 165.632812 175.042969 163.476562 177.898438 161.542969 180.925781 C 159.601562 183.953125 158.050781 187.1875 156.878906 190.621094 C 155.753906 194.027344 155.21875 197.46875 155.265625 200.949219 C 155.394531 204.695312 156.339844 207.894531 158.097656 210.542969 C 159.855469 213.179688 162.214844 215.109375 165.179688 216.332031 C 168.160156 217.550781 171.511719 217.851562 175.238281 217.234375 C 180.027344 216.417969 184.550781 214.707031 188.816406 212.105469 C 191.335938 210.628906 193.6875 208.957031 195.871094 207.101562 C 198.070312 205.234375 200.183594 203.242188 202.222656 201.144531 C 207.136719 196.015625 211.53125 190.484375 215.40625 184.539062 C 217.652344 181.023438 219.515625 177.3125 221 173.40625 C 221.078125 173.257812 221.144531 173.101562 221.195312 172.917969 C 221.535156 172.027344 221.925781 171.132812 222.367188 170.253906 C 223.0625 169.054688 224.15625 168.535156 225.636719 168.691406 C 226.527344 168.789062 227.03125 169.316406 227.128906 170.253906 C 227.128906 171.660156 226.863281 173.03125 226.347656 174.382812 C 223.039062 183.796875 219.449219 193.109375 215.578125 202.339844 C 215.492188 202.554688 215.40625 202.773438 215.308594 203 C 215.09375 203.425781 214.90625 203.855469 214.746094 204.292969 C 214.699219 204.410156 214.648438 204.539062 214.601562 204.683594 C 214.386719 205.191406 214.265625 205.726562 214.234375 206.296875 C 214.234375 206.527344 214.308594 206.699219 214.453125 206.808594 C 214.601562 206.90625 214.777344 206.996094 214.992188 207.078125 C 215.265625 207.175781 215.484375 207.308594 215.652344 207.46875 C 215.699219 207.46875 215.75 207.492188 215.796875 207.542969 C 215.90625 207.675781 216.003906 207.804688 216.089844 207.933594 C 216.1875 208.046875 216.144531 208.21875 215.96875 208.445312 C 215.851562 208.660156 215.664062 208.835938 215.40625 208.980469 C 215.125 209.117188 214.84375 209.175781 214.550781 209.175781 C 213.722656 209.078125 213.070312 209.261719 212.597656 209.714844 C 212.121094 210.171875 211.726562 210.753906 211.402344 211.449219 C 210.242188 213.921875 209.058594 216.367188 207.835938 218.796875 C 205.328125 223.9375 202.503906 228.9375 199.363281 233.789062 C 197.410156 236.828125 195.214844 239.703125 192.773438 242.410156 C 190.261719 245.273438 187.289062 247.5 183.859375 249.101562 C 181.984375 249.960938 180.074219 250.441406 178.121094 250.539062 C 175.875 250.699219 174.042969 250.160156 172.628906 248.929688 C 171.210938 247.707031 170.410156 245.960938 170.234375 243.703125 C 170.101562 241.800781 170.363281 239.882812 171.015625 237.964844 C 172.382812 234.265625 174.386719 230.96875 177.023438 228.078125 C 183.761719 220.371094 191.796875 214.632812 201.121094 210.863281 C 202.683594 210.261719 204.25 209.714844 205.8125 209.226562 C 205.988281 209.128906 206.183594 209.066406 206.398438 209.03125 C 207.570312 208.6875 208.421875 207.980469 208.960938 206.90625 C 209.429688 205.753906 209.917969 204.609375 210.425781 203.488281 C 211.871094 200.496094 213.097656 197.421875 214.113281 194.257812 C 214.144531 194.160156 214.144531 194.074219 214.113281 193.988281 C 214.046875 193.941406 214.015625 193.902344 214.015625 193.867188 C 213.539062 193.953125 213.167969 194.148438 212.890625 194.453125 C 212.609375 194.746094 212.335938 195.0625 212.0625 195.40625 C 211.945312 195.621094 211.800781 195.839844 211.621094 196.066406 C 208.28125 200.070312 204.675781 203.828125 200.804688 207.347656 C 196.097656 211.613281 190.890625 214.902344 185.179688 217.234375 C 181.917969 218.535156 178.632812 219.390625 175.3125 219.796875 C 172.003906 220.21875 168.707031 220.105469 165.425781 219.457031 C 161.617188 218.6875 158.398438 216.855469 155.78125 213.964844 C 153.171875 211.070312 151.609375 207.429688 151.089844 203.046875 C 150.785156 200.300781 150.882812 197.597656 151.382812 194.941406 C 151.871094 192.273438 152.683594 189.636719 153.824219 187.03125 C 155.144531 184.101562 156.671875 181.335938 158.417969 178.726562 C 160.175781 176.128906 162.117188 173.613281 164.253906 171.183594 C 171.753906 162.675781 180.28125 155.355469 189.84375 149.230469 C 196.679688 144.789062 203.710938 140.84375 210.9375 137.390625 C 218.167969 133.941406 225.625 131.066406 233.328125 128.769531 C 236.699219 127.734375 240.117188 126.9375 243.585938 126.402344 C 247.0625 125.851562 250.550781 125.644531 254.035156 125.792969 C 257.679688 125.90625 261.09375 126.742188 264.265625 128.304688 C 267.03125 129.710938 268.917969 131.859375 269.929688 134.753906 Z M 206.03125 212.765625 C 206.089844 212.4375 206.042969 212.179688 205.882812 211.984375 C 205.71875 211.789062 205.476562 211.742188 205.152344 211.839844 C 204.46875 212.0625 203.796875 212.300781 203.148438 212.546875 C 195.152344 216.0625 188.113281 221.019531 182.027344 227.417969 C 179.8125 229.710938 177.925781 232.25 176.363281 235.035156 C 175.191406 236.988281 174.472656 239.289062 174.214844 241.945312 C 174.214844 241.976562 174.214844 242.054688 174.214844 242.191406 C 174.179688 242.542969 174.179688 243 174.214844 243.558594 C 174.421875 245.558594 175.105469 246.890625 176.265625 247.5625 C 177.417969 248.246094 178.957031 248.195312 180.878906 247.414062 C 183.644531 246.144531 186.070312 244.367188 188.15625 242.09375 C 190.757812 239.339844 193.066406 236.378906 195.066406 233.203125 C 197.050781 230.109375 198.902344 226.941406 200.609375 223.707031 C 202.332031 220.480469 203.980469 217.214844 205.542969 213.914062 C 205.71875 213.523438 205.882812 213.15625 206.03125 212.816406 C 206.03125 212.777344 206.03125 212.765625 206.03125 212.765625 Z M 206.03125 212.765625 "/>
<path style=" stroke:none;fill-rule:nonzero;fill:rgb(51.759338%,72.549438%,83.139038%);fill-opacity:1;" d="M 344.835938 223.582031 C 344.863281 223.582031 344.9375 223.582031 345.054688 223.582031 C 345.347656 223.613281 345.628906 223.667969 345.910156 223.753906 C 346.203125 223.851562 346.453125 224.027344 346.664062 224.292969 C 346.746094 224.351562 346.8125 224.449219 346.859375 224.585938 C 346.910156 224.730469 346.910156 224.867188 346.859375 225 C 346.8125 225.128906 346.726562 225.25 346.617188 225.367188 C 346.519531 225.476562 346.425781 225.535156 346.347656 225.535156 C 345.8125 225.597656 345.261719 225.597656 344.710938 225.535156 C 331.460938 222.785156 316.777344 221.007812 300.664062 220.214844 C 284.546875 219.414062 269.675781 219.707031 256.050781 221.09375 C 255.429688 221.125 254.835938 221.191406 254.269531 221.289062 C 253.746094 221.335938 253.25 221.375 252.78125 221.410156 C 251.265625 221.617188 249.960938 222.289062 248.875 223.414062 C 246.429688 226.082031 243.734375 228.429688 240.792969 230.46875 C 238.476562 232.03125 235.933594 232.898438 233.148438 233.082031 C 232.023438 233.160156 230.9375 232.984375 229.902344 232.542969 C 228.90625 232.105469 228.265625 231.453125 227.972656 230.589844 C 227.691406 229.722656 227.824219 228.796875 228.363281 227.808594 C 229.222656 226.402344 230.644531 225.199219 232.636719 224.195312 C 234.636719 223.199219 236.769531 222.386719 239.03125 221.753906 C 241.292969 221.128906 243.207031 220.675781 244.769531 220.382812 C 246.851562 219.976562 248.542969 218.957031 249.851562 217.332031 C 256.148438 209.664062 262.207031 200.992188 268.015625 191.304688 C 273.839844 181.621094 279.207031 171.660156 284.109375 161.417969 C 289.003906 151.160156 293.226562 141.34375 296.78125 131.96875 C 296.890625 131.480469 297.085938 131.058594 297.367188 130.699219 C 297.660156 130.328125 298.082031 130.0625 298.636719 129.917969 C 299.171875 129.855469 299.625 129.964844 300.003906 130.261719 C 300.394531 130.539062 300.546875 130.929688 300.46875 131.433594 C 300.285156 132.652344 299.984375 133.847656 299.5625 135.019531 C 296.175781 143.925781 292.164062 153.207031 287.527344 162.855469 C 282.898438 172.496094 277.863281 181.898438 272.410156 191.058594 C 266.972656 200.226562 261.355469 208.519531 255.5625 215.941406 C 254.355469 217.453125 253.988281 218.332031 254.464844 218.578125 C 254.953125 218.820312 255.886719 218.804688 257.273438 218.527344 C 257.578125 218.492188 257.882812 218.457031 258.175781 218.40625 C 269.03125 217.1875 280.296875 216.820312 291.96875 217.308594 C 303.640625 217.796875 315.140625 218.820312 326.472656 220.382812 C 330.457031 220.953125 334.363281 221.605469 338.191406 222.339844 C 340.449219 222.757812 342.667969 223.175781 344.835938 223.582031 Z M 234.785156 230.273438 C 238.105469 228.917969 240.847656 226.792969 243.011719 223.902344 C 239.449219 224.15625 236.273438 225.269531 233.492188 227.222656 C 232.609375 227.867188 232.097656 228.496094 231.953125 229.101562 C 231.804688 229.71875 231.984375 230.164062 232.488281 230.445312 C 232.988281 230.71875 233.757812 230.664062 234.785156 230.273438 Z M 234.785156 230.273438 "/>
</g>
</svg>
